<?xml version="1.0" encoding="UTF-8"?>
<svg width="290px" height="357px" viewBox="0 0 290 357" version="1.1" xmlns="http://www.w3.org/2000/svg" xmlns:xlink="http://www.w3.org/1999/xlink">
    <!-- Generator: Sketch 42 (36781) - http://www.bohemiancoding.com/sketch -->
    <title>Group 5</title>
    <desc>Created with Sketch.</desc>
    <defs></defs>
    <g id="CV-Material-design" stroke="none" stroke-width="1" fill="none" fill-rule="evenodd">
        <g id="Desktop-HD" transform="translate(-919.000000, -1741.000000)">
            <g id="Group-5" transform="translate(917.000000, 1741.000000)">
                <text id="Dynamic,-but-well-de" font-family="Lato-Light, Lato" font-size="25" font-weight="300" letter-spacing="0.78125" fill="#FFFFFF">
                    <tspan x="0.2125" y="326">Dynamic, but well-defined</tspan>
                    <tspan x="101.55625" y="356">solution</tspan>
                </text>
                <g id="Group-2" transform="translate(20.000000, 0.000000)" fill-rule="nonzero">
                    <path d="M250.677832,0 L139.249551,0 L139.249551,48.1929297 C139.249551,55.3373437 131.497793,59.8015234 125.321777,56.2351562 C115.223926,50.4069922 102.106621,57.5123047 102.106621,69.6429297 C102.106621,81.7461328 115.196504,88.8951172 125.321777,83.0507031 C131.510488,79.47875 139.249551,83.9601953 139.249551,91.0929297 L139.249551,120.714141 L156.370957,120.714141 C154.64084,101.858047 169.286152,83.5712109 190.320762,83.5712109 C211.203535,83.5712109 226.015918,101.694023 224.270566,120.714141 L259.963691,120.714141 L259.963691,9.28585937 C259.963691,4.15746094 255.80623,0 250.677832,0 Z" id="Shape-Copy-8" fill="#59E1EC"></path>
                    <path d="M120.750449,35.6936328 L120.750449,0 L9.32216797,0 C4.19376953,0 0.0363085937,4.15746094 0.0363085937,9.28585938 L0.0363085937,120.714648 L48.2292383,120.714648 C55.3360742,120.714648 59.8566211,128.431875 56.2714648,134.642422 C50.4717383,144.69 57.4942773,157.857578 69.6792383,157.857578 C81.8083398,157.857578 88.9197461,144.746875 83.0870117,134.643438 C79.5150586,128.455234 83.9970117,120.714648 91.1292383,120.714648 L120.750449,120.714648 L120.750449,103.592227 C101.86998,105.327422 83.6075195,90.6521484 83.6075195,69.6429297 C83.6075195,48.4285547 102.095449,33.9762109 120.750449,35.6936328 Z" id="Shape-Copy-7" fill="#0078C3"></path>
                    <path d="M211.698145,139.213242 C204.489238,139.213242 200.128145,131.398008 203.655918,125.285469 C209.418574,115.303906 202.497598,102.070312 190.248145,102.070312 C178.090098,102.070312 171.021855,115.206406 176.840371,125.285469 C180.412324,131.47418 175.929863,139.213242 168.798145,139.213242 L139.176934,139.213242 L139.176934,156.328555 C158.089902,154.595391 176.319863,169.297578 176.319863,190.277852 C176.319863,211.223086 158.122402,225.967422 139.176934,224.227656 L139.176934,259.927383 L250.605723,259.927383 C255.734121,259.927383 259.891582,255.769922 259.891582,250.641523 L259.891582,139.213242 L211.698145,139.213242 Z" id="Shape-Copy-6" fill="#006B5C"></path>
                    <path d="M134.67873,176.797969 C128.478848,180.376523 120.750957,175.887969 120.750957,168.755742 L120.750957,139.140625 L103.628535,139.140625 C105.360176,158.003828 90.7052148,176.283555 69.6792383,176.283555 C48.7487305,176.283555 33.989668,158.097773 35.7299414,139.140625 L0.0363085937,139.140625 L0.0363085937,250.569414 C0.0363085937,255.697305 4.19376953,259.854766 9.32216797,259.854766 L120.750957,259.854766 L120.750957,211.655742 C120.750957,204.511328 128.502715,200.047148 134.67873,203.613516 C144.812637,209.4625 157.893887,202.298789 157.893887,190.205742 C157.893379,178.102031 144.802988,170.954062 134.67873,176.797969 Z" id="Shape-Copy-5" fill="#000000"></path>
                </g>
            </g>
        </g>
    </g>
</svg>