<?xml version="1.0" encoding="UTF-8"?>
<svg width="311px" height="238px" viewBox="0 0 311 238" version="1.1" xmlns="http://www.w3.org/2000/svg" xmlns:xlink="http://www.w3.org/1999/xlink">
    <!-- Generator: Sketch 42 (36781) - http://www.bohemiancoding.com/sketch -->
    <title>Shape Copy</title>
    <desc>Created with Sketch.</desc>
    <defs></defs>
    <g id="CV-Material-design" stroke="none" stroke-width="1" fill="none" fill-rule="evenodd">
        <path d="M265.142,74.156 C252.933,81.203 237.715,72.364 237.715,58.319 L237.715,5.68434189e-14 L203.997,5.68434189e-14 C207.407,37.146 178.548,73.143 137.143,73.143 C95.926,73.143 66.862,37.331 70.289,0 L0,0 L0,219.429 C-2.84217094e-14,229.527 8.187,237.714 18.286,237.714 L237.715,237.714 L237.715,142.799 C237.715,128.73 252.98,119.939 265.142,126.962 C285.098,138.48 310.858,124.373 310.858,100.559 C310.857,76.724 285.079,62.648 265.142,74.156 Z" id="Shape-Copy" fill="#D8D8D8" fill-rule="nonzero"></path>
    </g>
</svg>